# xmcd
#
# Track frame offsets: 
#        150
#        9807
#        21557
#        31860
#        43367
#        55865
#        69377
#        86577
#        98642
#        110475
#        124172
#        133782
#        145795
#        156525
#        165985
#        180112
#        197615
#        210677
#        224340
#        233900
#
# Disc length: 3261 seconds
#
# Revision: 0
# Processed by: cddbd v1.5.1PL2 Copyright (c) Steve Scherf et al.
# Submitted via: ExactAudioCopy v0.95b4
#
DISCID=120cbb14
DTITLE=The Louvin Brothers - 20 All-Time Greatest Hits
DYEAR=2002
DGENRE=Country
TTITLE0=I Don't Believe You've Met My Baby
TTITLE1=Hoping That YOu're Hoping
TTITLE2=You're Running Wild
TTITLE3=When I Stop Dreaming
TTITLE4=My Babys Gone
TTITLE5=I Love YOu Best of All
TTITLE6=Knoxville Girl
TTITLE7=Must You Throw Dirt In My Face
TTITLE8=How's The World Treating You
TTITLE9=The Great Speckled bird
TTITLE10=Pitfall
TTITLE11=Kentucky
TTITLE12=She Did'nt Even Know I Was Gone
TTITLE13=While You're Cheating On Me
TTITLE14=Searching For A Soldier's Grave
TTITLE15=The Precious Jewel
TTITLE16=Broken Engagement
TTITLE17=Wabash Cannonball
TTITLE18=I've Known A Lady
TTITLE19=Give This Message To Your Heart
EXTD=
EXTT0=
EXTT1=
EXTT2=
EXTT3=
EXTT4=
EXTT5=
EXTT6=
EXTT7=
EXTT8=
EXTT9=
EXTT10=
EXTT11=
EXTT12=
EXTT13=
EXTT14=
EXTT15=
EXTT16=
EXTT17=
EXTT18=
EXTT19=
PLAYORDER=
